<?xml version="1.0" encoding="utf-8"?>
<!-- Generator: Adobe Illustrator 26.0.3, SVG Export Plug-In . SVG Version: 6.00 Build 0)  -->
<svg version="1.1" id="Layer_1" xmlns="http://www.w3.org/2000/svg" xmlns:xlink="http://www.w3.org/1999/xlink" x="0px" y="0px"
	 viewBox="0 0 706.9 688.4" style="enable-background:new 0 0 706.9 688.4;" xml:space="preserve">
<style type="text/css">
	.st0{display:none;fill:#FFFFFF;}
	.st1{fill:#FFFFFF;}
</style>
<g transform="translate(0.000000,1500.000000) scale(0.100000,-0.100000)">
	<path class="st0" d="M3622.3,16614.5c-96-35-120-62-120-131s38-101,145-123c73-16,95-26,95-45c0-35-100-32-115,3c-9,19-17,22-73,22
		h-62l6-27c17-79,75-113,189-113c126,0,188,45,188,135c0,73-34,100-162,129c-74,17-90,28-71,51c19,22,77,19,92-5c10-16,24-20,70-20
		s58,3,58,15c0,32-30,73-66,90C3759.3,16613.5,3650.3,16625.5,3622.3,16614.5z"/>
	<path class="st0" d="M4277.3,16573.5c-35-9-85-53-105-92c-46-92-34-201,30-262c47-45,108-62,198-57c57,3,76,8,107,32
		c50,39,76,99,76,181c1,128-71,195-215,201C4329.3,16578.5,4288.3,16576.5,4277.3,16573.5z M4426.3,16459.5c22-17,26-29,26-68
		c0-93-26-131-90-131c-76,0-97,45-74,158C4300.3,16477.5,4374.3,16500.5,4426.3,16459.5z"/>
	<path class="st0" d="M2567.3,16471.5c-112-28-150-41-149-52c4-48,89-379,98-379c21,0,321,73,329,80c12,11-11,90-26,90
		c-7,0-55-11-107-25c-99-25-113-23-108,20c3,16,19,23,88,39c47,11,86,21,88,22s-2,22-8,46l-11,44l-89-20c-49-11-91-18-93-15
		c-3,2-7,14-11,26c-6,20,0,23,86,43c51,11,100,23,109,26c14,4,15,11,6,49C2756.3,16520.5,2765.3,16520.5,2567.3,16471.5z"/>
	<path class="st0" d="M4873.3,16284.5c-29-108-51-197-49-199c5-5,302-85,314-85c10,0,34,62,34,87c0,9-30,19-157,52l-41,11l34,128
		c19,70,37,136,40,148c4,17-1,22-43,31c-26,7-55,14-64,18C4929.3,16480.5,4917.3,16446.5,4873.3,16284.5z"/>
	<path class="st0" d="M1887.3,16255.5c-67-26-110-48-109-57c1-11,133-358,139-366s115,43,115,54c0,7-9,35-19,62l-19,49l68,30
		c78,35,103,66,103,126c0,82-60,148-133,146C2013.3,16299.5,1948.3,16279.5,1887.3,16255.5z M2020.3,16178.5c25-25,14-58-24-74
		c-20-8-37-14-38-12c-8,11-28,69-25,72C1964.3,16190.5,2002.3,16196.5,2020.3,16178.5z"/>
	<path class="st0" d="M5498.3,16088.5c-81-88-146-161-144-162c1-1,30-13,62-26l59-24l18,23l19,23l65-27c61-26,65-30,65-60
		s4-34,57-54c40-15,58-18,63-10c11,17,23,410,14,418c-5,4-36,19-69,33l-61,26L5498.3,16088.5z M5663.3,16043.5c-4-35-10-66-14-69
		c-8-8-67,15-67,26c0,8,82,111,86,107C5669.3,16106.5,5667.3,16077.5,5663.3,16043.5z"/>
	<path class="st0" d="M1294.3,15974.5c-52-30-61-39-57-57c3-12,18-107,35-211c16-104,31-190,32-191c2-2,28,11,57,29
		c48,28,55,36,55,64c1,30,7,36,59,64l58,31l21-21l21-21l59,32c32,18,57,35,55,38c-4,11-315,279-324,279
		C1361.3,16010.5,1329.3,15994.5,1294.3,15974.5z M1416.3,15821.5l48-48l-37-23c-20-12-37-21-39-19c-8,9-32,139-27,139
		C1365.3,15870.5,1389.3,15848.5,1416.3,15821.5z"/>
	<path class="st0" d="M6178.3,15968.5c-38-60-187-311-189-319c-1-5,20-22,48-38l49-30l42,70c42,72,64,100,64,84c0-20,39-235,44-243
		c7-11,95-57,99-52c2,3,49,81,105,175l101,169l-47,28c-26,15-50,28-54,28c-3,0-27-36-53-80c-26-45-49-79-51-78c-1,2-12,59-24,128
		s-22,125-23,126s-23,13-49,28l-47,27L6178.3,15968.5z"/>
	<path class="st0" d="M6722.3,15409.5c-91-55-171-103-178-108c-10-6,0-19,37-50c50-42,52-43,76-27c25,16,27,16,80-26
		c55-43,56-46,38-94c-3-9,97-97,104-90c1,1,34,93,72,204l70,202l-55,45c-31,25-61,45-67,44
		C6892.3,15509.5,6813.3,15463.5,6722.3,15409.5z M6860.3,15310.5l-31-69l-29,24c-16,13-29,27-29,31c0,5,110,84,118,84
		C6890.3,15380.5,6877.3,15349.5,6860.3,15310.5z"/>
	<path class="st0" d="M425.3,15352.5c-37-20-191-153-192-166c-1-11,258-296,269-296c15,0,180,162,196,191c19,37,18,112-2,152
		s-81,104-116,123C544.3,15375.5,464.3,15373.5,425.3,15352.5z M551.3,15205.5c49-53,53-86,14-127c-15-15-30-28-34-28
		c-3,0-37,34-75,76l-68,77l29,23C465.3,15264.5,502.3,15258.5,551.3,15205.5z"/>
	<path class="st1" d="M5366.3,14986.5c-12-32-222-123-459-200c-132-43-249-82-260-87s-177-10-370-12c-375-4-362-2-625-68
		c-162-40-270-76-380-125c-99-44-393-194-411-210c-8-8-19-14-23-14c-8,0-207-132-260-173c-106-79-244-178-298-211
		c-62-39-90-60-357-272l-134-106l-31,33c-18,19-54,63-81,98c-27,36-105,120-174,188c-114,112-133,127-225,172c-129,63-195,81-293,81
		c-213,0-406-152-584-460c-31-52-71-126-90-165c-19-38-40-76-46-83c-7-7-13-22-13-33c0-10-4-19-10-19c-5,0-13-12-16-27
		c-4-16-36-91-72-168c-35-77-70-153-77-170c-7-16-18-41-24-55c-86-195-68-419,55-699c14-31,30-69,37-86c33-81,122-254,162-315
		c92-142,252-313,338-363c73-43,144-50,516-50c459,1,578,17,697,96c25,16,47,27,50,25c16-16-57-484-85-553c-17-39-40-111-51-155
		c-6-25-18-72-26-105c-43-171-56-287-73-689c-6-134-6-228,0-243l9-24l30,21c20,14,31,32,35,58c8,52,11,60,32,117
		c21,58,70,145,82,145c7,0,31-127,46-245c4-28,15-59,26-71c20-21,53-81,131-234c23-47,45-87,48-90s11-16,18-30
		c47-95,179-260,208-260c7,0,14-6,17-12c3-10,7-10,20,1c21,17,22,68,3,107c-21,41-36,180-35,314c1,63,4,106,6,95c3-11,9-24,13-30
		c4-5,11-26,15-45s11-41,16-50c4-8,33-68,64-132c31-65,61-118,66-118s9-5,9-10c0-17,51-60,70-60c9,0,22-10,28-22c14-27,35-61,42-68
		c11-11,50-70,50-75c0-9,43-67,68-91c12-12,22-25,22-29c0-9,77-100,114-136c14-13,26-29,26-35c0-12,60-72,89-88c11-6,53-41,94-78
		c41-38,82-68,91-68s16-6,16-13s21-24,48-37c26-14,66-42,89-62c27-25,56-40,82-44c23-4,46-13,52-20c6-8,18-14,25-14c8,0,14-4,14-9
		c0-9,72-50,164-92c50-24,66-33,66-41c0-5,9-3,19,4c15,9,25,9,43,0c13-6,43-17,68-22c217-52,224-53,395-54c171,0,249,10,375,50
		c52,17,163,73,168,86c2,4,10,8,17,8c33,0,211,161,266,242c21,32,39,61,39,64c0,7,44,69,88,124c13,16,55,50,93,76
		c192,127,269,283,241,484c-6,44-15,87-20,97s-23,48-41,85c-62,127-206,291-348,396c-50,36-63,51-63,73v27l153,5
		c289,11,379,29,534,104c118,57,226,180,236,269c2,17,7,36,12,44c14,22,18,249,6,330c-22,149-29,187-46,246c-27,92-55,177-64,199
		c-5,11-19,45-31,75s-42,93-68,139c-33,63-42,86-32,89c26,9,206,135,282,198c67,55,192,179,363,359c71,74,165,181,226,256
		c29,35,69,82,90,104c40,44,109,140,109,153c0,4,12,24,26,43c107,142,172,439,145,662c-12,106-41,211-72,262c-10,17-27,46-38,65
		c-26,47-116,140-169,173c-87,56-138,69-263,69c-124,0-153-4-239-32c-125-42-217-96-315-184c-27-25-51-43-52-42c-2,2,9,47,23,102
		c15,54,39,151,54,214s34,137,41,164l14,49l-116,111c-64,61-139,138-166,171c-79,96-173,247-173,276c0,7,25,36,56,65
		c32,29,54,58,52,65c-6,17-108,15-140-2c-36-19-33,1,5,36c74,68,44,76-104,29c-143-45-186-56-218-52c-25,3-22,7,45,78
		c76,80,124,144,124,166C5412.3,15004.5,5373.3,15004.5,5366.3,14986.5z M5182.3,14660.5c0-5-7-10-15-10s-15-4-15-9s-8-11-17-15
		c-10-3-25-9-33-13c-21-9,18,29,44,43C5173.3,14671.5,5182.3,14672.5,5182.3,14660.5z M5372.3,14610.5c0-5-6-10-14-10s-23-3-33-7
		c-16-6-16-5-4,10C5336.3,14621.5,5372.3,14626.5,5372.3,14610.5z M5582.3,14110.5c27-14,67-79,82-132c16-59,21-316,8-402
		c-6-39-14-189-17-334c-3-144-10-265-15-268c-4-3-8-12-8-20c0-38-125-269-185-341c-5-7-28-37-50-68l-40-56l-85,5
		c-197,13-206,16-285,88c-43,39-144,88-182,88c-42,0-50,16-59,123l-7,87h25c15,0,44-19,78-50c30-27,60-50,67-50s13-4,13-8
		c0-5,33-19,73-33c59-20,92-24,182-24c95,0,118,4,165,25c30,13,61,30,69,38c7,7,16,10,19,7c8-8-26-37-81-69c-30-18-47-35-47-47
		c0-10,6-19,13-19c19,0,117,67,165,113c55,52,105,136,91,153c-6,7-2,20,12,37c25,33,17,50-20,42c-32-7-42,5-96,110
		c-51,99-68,162-73,272l-4,102l53-20c30-12,77-38,105-60c53-40,74-48,74-26c0,23-29,54-82,89c-86,56-141,72-248,72
		c-147,1-245-38-388-154c-35-28-66-49-70-46c-3,3,0,23,7,43c31,97,47,354,28,430c-8,32-8,33,50,58c32,13,65,29,73,35
		c8,5,24,15,35,20c11,6,47,28,80,50c101,67,168,106,205,119C5412.3,14127.5,5533.3,14136.5,5582.3,14110.5z M4092.3,13980.5
		c75-14,144-31,165-40c64-27,146-47,329-80c60-11,112-23,116-27c18-22,32-99,33-192c1-70,6-106,14-108c20-7,33,66,33,190
		c0,71,4,117,10,117s10-2,10-4c0-3,5-38,10-78c15-109-12-306-70-514c-39-140-54-273-47-417l6-119l-37,6c-95,17-212,18-277,1
		c-133-33-268-108-361-201l-57-58l-241-3c-290-5-371-20-508-100c-66-39-87-40-194-12c-149,39-217,74-306,158
		c-100,94-137,165-162,317c-15,91-15,106-1,159c8,33,15,65,15,73c0,7,11,37,24,65c13,29,27,62,30,73c20,66,93,171,243,347
		c240,281,542,429,943,461C3871.3,13999.5,4035.3,13990.5,4092.3,13980.5z M1032.3,13979.5c46-5,89-14,95-18c5-5,24-11,40-15
		c17-4,44-13,60-21c103-48,122-57,139-68c11-7,26-18,35-25s38-31,65-52c41-32,85-79,169-180c6-8,20-30,31-50c10-19,21-37,25-40
		c15-12,91-160,91-178c0-7,6-21,12-32c10-15,10-22,0-32c-9-9-12-9-12,1c0,7-13,30-30,51c-16,21-30,42-30,47c0,13-149,182-201,227
		c-24,21-56,49-71,62c-14,13-29,24-32,24s-26,13-50,29c-63,39-144,54-263,49c-71-3-117-12-168-30c-91-33-181-76-196-94
		c-6-8-17-14-23-14s-37-23-69-50c-32-28-62-50-66-50c-7,0-61-53-128-125c-7-8-13-23-13-34c0-32,43-27,79,9c17,17,32,26,36,20
		c3-5,2-10-4-10c-5,0-12-13-16-30c-4-16-11-30-16-30s-9-7-9-16s-7-30-15-47c-41-88-85-380-87-582c-2-141,13-315,31-360
		c4-11,16-45,25-75c55-171,199-384,325-477c178-133,445-213,616-183c33,5,88,10,123,10c66,0,191,37,222,65c9,8,21,15,26,15
		c6,0,40,29,77,65s70,65,73,65c11,0-3-171-15-183c-8-8-11-7-11,4c0,8-9,20-21,27c-24,15-78,2-118-29c-13-11-30-19-37-19
		c-8,0-14-4-14-9s-12-12-27-15c-24-6-48-16-113-46c-8-4-16-17-18-29c-3-18,2-21,29-21c21,0,30-3,23-10c-17-17-196-32-384-31
		c-235,1-370,14-440,41c-30,12-64,24-75,27s-27,11-35,18s-31,20-50,29c-98,46-181,129-255,254c-5,10-20,31-31,47
		c-25,35-74,137-74,153c0,7-4,12-9,12c-5,0-12,12-15,28c-4,15-13,41-20,57c-31,68-37,82-51,130c-51,164-84,319-85,391
		c0,51,39,282,51,306c5,9,9,24,9,34c0,9,22,66,50,126c27,59,53,120,56,136c4,15,28,68,53,117c109,218,198,348,313,462
		c95,93,153,130,258,164C939.3,13993.5,929.3,13992.5,1032.3,13979.5z M6542.3,13698.5c25,0,124-29,135-40c7-7,2-9-15-4
		c-46,13-229,19-242,9c-7-6-34-14-60-17c-27-4-48-11-48-17c0-5-4-9-9-9s-57-23-116-51c-105-51-218-121-262-162c-13-11-23-16-23-10
		c0,5,11,20,25,33s25,29,25,35c0,13,52,65,64,65c5,0,25,12,45,28c128,97,297,156,411,145
		C6502.3,13700.5,6534.3,13697.5,6542.3,13698.5z M1247.3,13680.5c3-5,14-10,23-10c21,0,151-95,215-158c48-46,197-234,197-247
		c0-4,13-24,30-45c16-20,27-40,23-44c-3-3-35-6-70-6c-44,0-89-9-140-26l-75-26l-32,31c-39,37-145,94-219,115c-31,9-91,16-137,16
		c-155,0-272-52-381-168c-38-41-69-80-69-87c0-33,25-22,81,34c109,111,188,146,329,145c87,0,102-3,173-36c43-19,98-49,123-67l45-31
		l-67-63c-105-97-162-193-209-348c-19-64-17-262,5-358c12-57,45-111,67-111c15,0,17,22,4,35c-36,37-53,276-25,365c9,30,21,62,25,70
		s19,40,32,70c33,73,102,158,179,220c121,96,245,138,368,124c96-12,106-25,126-165c8-57,19-138,25-179c24-168-17-317-158-565
		c-12-22-29-55-37-72c-8-18-47-65-85-105c-67-68-85-98-61-98c35,0,187,134,247,217c24,34,48,63,52,63c3,0,22,26,41,58l35,57l7-50
		c12-96,9-294-6-323c-21-39-71-83-146-128c-36-21-72-44-81-51c-8-7-51-23-95-34c-65-18-106-22-239-22c-140,0-174,4-270,27
		c-163,40-262,93-360,191c-155,154-244,329-271,530c-12,88-10,275,4,395c30,248,80,387,211,583c25,38,51,76,56,85
		c34,55,125,152,142,152c7,0,21,4,31,9c48,26,115,39,219,40C1194.3,13689.5,1243.3,13686.5,1247.3,13680.5z M6732.3,13630.5
		c0-5-9-6-20-3s-20,9-20,13c0,5,9,6,20,3S6732.3,13634.5,6732.3,13630.5z M6697.3,13581.5c33-18,69-42,81-52c20-19,64-26,64-10
		c0,4-11,20-26,36c-39,42-22,41,19-1c51-53,92-135,118-239c19-76,22-115,22-255c-1-143-5-179-28-270c-21-86-102-280-124-300
		c-3-3-13-18-21-33c-8-16-29-44-47-64c-18-19-33-37-33-40s-25-32-56-66c-30-33-67-77-80-99c-30-47-427-448-444-448c-6,0-32-17-58-39
		c-26-21-60-46-77-55c-16-9-37-21-45-26c-66-43-144-81-156-76c-17,7-20,96-3,96c7,0,32,17,58,38c25,20,63,49,86,63
		c22,14,56,40,75,58s71,62,114,99c89,75,238,222,306,302c25,28,57,65,73,81c15,16,27,33,27,38c0,4,9,16,20,26s20,24,20,32
		c0,7,5,13,10,13c6,0,13,8,17,18c3,9,18,33,32,52c33,44,101,181,101,203c0,10,4,17,9,17s13,14,16,32c4,18,11,39,16,48
		c17,31,39,179,39,260c0,82-27,260-41,270c-4,3-11,18-14,33c-4,15-11,27-16,27s-9,6-9,14c0,7-9,25-20,39s-20,28-20,31s9,6,20,6
		c14,0,20,7,20,23c0,70-255,88-465,32c-33-8-68-20-78-26c-32-18-33,2-2,27c51,41,167,96,250,118c11,2,58,4,105,2
		C6626.3,13614.5,6645.3,13609.5,6697.3,13581.5z M5317.3,13413.5c14-135,59-265,132-377c21-33,29-54,23-60c-21-21-205-38-459-43
		l-264-4l5,58c3,32,14,96,24,142c15,72,24,90,61,131c52,58,188,149,258,173c51,17,166,44,197,46
		C5307.3,13480.5,5312.3,13467.5,5317.3,13413.5z M6594.3,13418.5c82-83,120-168,143-313c9-60,14-125,11-145c-4-19-11-61-17-93
		c-29-169-128-378-263-552c-61-78-82-102-221-240c-227-228-315-299-400-325c-22-7-46-17-53-23c-15-12-32,6-32,36c0,9-10,51-22,92
		l-22,75l23,24c16,17,39,27,74,31c116,16,249,65,297,111c22,21-2,41-32,27c-46-23-93-33-173-39l-82-7l-6,63c-4,35-17,83-29,108
		c-22,42-119,142-139,142c-21,0-71,47-84,78c-14,31-13,45,6,87c38,89,89,223,89,237c0,23,110,140,188,198c78,60,187,114,277,140
		l70,19l18-22c29-36,63-108,82-177c21-73,26-309,8-332c-6-7-14-28-18-46c-12-55-79-173-132-232c-28-30-29-40-5-40
		c34,0,132,121,179,220c53,113,66,182,61,332c-4,112-9,145-31,208c-15,41-27,79-27,84s26,6,58,4c62-6,137-36,188-74
		c55-43,85-24,45,28c-30,37-127,84-216,103c-88,19-197,17-326-8c-74-15-222-79-290-127c-16-12-32-20-35-18c-2,3,4,23,13,44
		c21,45,112,132,198,189c33,22,62,42,65,45c13,14,155,76,240,106c120,41,122,41,199,43l63,1L6594.3,13418.5z M5493.3,12913.5
		c-34-64-167-138-265-148c-127-14-306,34-362,96c-17,18-15,19,59,19c69,0,80-3,124-32c42-29,55-32,118-33c78,0,151,27,179,67
		c12,16,34,26,74,34C5504.3,12933.5,5504.3,12933.5,5493.3,12913.5z M4622.3,12681.5c20-6,15-9-30-14c-30-3-84-13-120-21
		s-94-21-130-30c-36-8-79-22-95-30c-17-9-36-16-43-16s-24-7-38-16c-13-9-27-14-30-11c-12,11,175,105,261,131
		C4449.3,12689.5,4579.3,12693.5,4622.3,12681.5z M5537.3,12610.5c-4-17-14-44-22-61c-9-18-13-42-9-60c6-30,5-30-32-23
		c-20,3-41,10-45,14c-10,9,90,160,105,160C5539.3,12640.5,5541.3,12627.5,5537.3,12610.5z M4869.3,12595.5c29-15,61-37,70-48
		c18-19,17-19-117-13c-147,7-294-3-495-34c-71-11-143-19-160-19c-27,0-24,4,30,29c33,16,66,30,73,30s20,4,30,9c21,12,111,38,177,52
		c28,5,66,14,85,19s85,8,145,6C4807.3,12624.5,4822.3,12621.5,4869.3,12595.5z M4809.3,12466.5c4-4,9-66,11-138c5-139,1-159-49-289
		c-16-41-29-82-29-90s-6-23-14-34c-26-37-38-127-26-197c13-87,27-111,110-193c74-72,97-106,115-164c14-46,41-63,61-37
		c42,58-6,157-154,315c-41,44-54,52-65,42c-12-9-16-6-21,20c-16,84,5,190,64,314c51,107,89,380,61,434l-12,22l143-6
		c79-4,159-11,178-16c19-4,87-11,150-15c183-10,305-60,379-154c61-77,68-187,16-248c-65-77-187-106-420-100c-119,2-140,1-140-12
		c0-10,12-16,39-18c85-7,306-196,476-408c105-130,145-197,211-349c84-194,137-501,123-713c-7-114-30-173-93-245
		c-40-44-148-117-174-117c-7,0,4,10,23,21c19,12,67,54,107,93c77,78,83,94,87,218c1,49-1,53-29,66c-72,34-169,109-295,227
		c-262,246-455,371-665,431c-129,38-383,75-515,77c-88,1-309-21-380-38c-147-35-286-79-360-113c-118-54-317-182-413-266
		c-172-151-370-448-467-701c-12-33-26-69-31-80c-34-85-44-193-24-271c13-54,27-80,68-128c126-149,415-406,497-443c8-4,29-16,45-28
		c61-45,408-224,435-225c8,0,26-6,40-13c85-44,267-92,460-122c131-21,480-16,605,8c110,21,178,38,190,47c6,4,26,11,45,15
		s41,11,50,16c8,4,40,20,70,34c68,32,85,42,136,82c56,44,89,129,88,233c0,82-14,130-71,248c-21,42-39,80-41,85c-2,4,1,7,7,7
		c7,0,14-8,18-17c3-10,12-25,18-33c22-27,71-125,90-181c12-36,19-84,19-144c0-81-3-96-30-151c-17-34-43-78-58-97
		c-50-65-188-157-291-194c-89-32-304-69-488-85c-139-12-227-7-421,23c-73,11-86,8-70-19c11-17,98-35,236-50c37-4,70-11,73-14
		c4-4-6-13-22-21c-36-20-103-81-103-96c0-21,29-11,96,34c86,58,190,89,369,112c154,19,182,20,239,8c37-8,39-7,33,14c-3,13-1,23,6,25
		s26,8,43,13l31,10l-53-81c-29-44-68-100-85-124c-36-48-157-148-209-174c-19-9-62-30-95-46s-85-37-116-46c-71-20-256-46-329-46
		c-124,0-356,48-530,111c-305,109-655,361-885,636c-259,310-371,554-370,808c1,100,4,120,38,220c36,105,75,194,154,350
		c122,240,487,778,689,1015c73,86,169,201,229,275c56,69,119,139,153,169c31,28,173,103,242,128c62,23,82,36,74,49c-7,12-59,12-82,0
		c-87-46-234-73-365-68c-274,11-415,55-500,157c-55,64-39,164,36,237c99,96,313,162,487,150c101-7,584,25,680,44
		C4473.3,12474.5,4791.3,12484.5,4809.3,12466.5z M5682.3,11768.5c22-90,26-148,10-148c-5,0-15,10-21,22s-16,27-20,32
		c-5,6-28,36-52,66c-23,30-59,70-79,89c-21,19-35,38-32,42c3,5,29,9,57,10c29,0,61,4,72,8
		C5643.3,11900.5,5656.3,11876.5,5682.3,11768.5z M4312.3,11105.5c12-19,26-35,31-35c16,0,21,27,9,49c-11,21-10,21,172,20
		c101,0,203-4,228-8c85-16,195-41,215-50c11-4,54-22,96-38c95-38,221-111,214-124c-14-22-271,5-299,32c-13,12-49,12-62,0
		c-20-19-145-42-279-52c-77-5-190-14-251-19c-161-15-354-13-355,3c-1,6-1,31,0,54c3,49-13,85-34,77c-11-5-15-23-15-68
		c0-40-6-69-16-85c-15-21-22-22-93-18c-42,2-96,9-121,15s-90,11-145,12h-100l55,33c177,107,308,159,515,206
		C4262.3,11151.5,4284.3,11150.5,4312.3,11105.5z M2124.3,10864.5c-5-11-13-41-16-69c-10-70-15-85-32-85c-10,0-14-13-14-50
		c0-27-4-50-10-50s-10,45-10,115c0,63,4,115,9,115s11,9,14,20c6,22,47,43,60,30C2130.3,10886.5,2130.3,10874.5,2124.3,10864.5z
		 M4922.3,10822.5c0-138-72-408-117-437c-36-24-249-46-458-48c-221-2-276,9-321,68c-35,46-53,112-42,150c4,17,11,71,15,120
		c4,54,13,102,23,120c16,29,18,29,106,32c186,5,516,23,524,28c4,3,54,10,109,15c56,6,111,15,124,19c12,5,25,7,30,4
		C4919.3,10891.5,4922.3,10859.5,4922.3,10822.5z M5092.3,10878.5c41-5,116-7,166-4l92,5l63-48c35-27,97-79,137-116l72-67v-85
		c0-80-2-86-29-114c-16-16-38-29-48-29c-11,0-23-4-28-9c-6-5-43-13-82-17c-65-6-73-5-73,10c0,27-30,77-42,70c-6-4-8-24-4-50
		c3-26,2-44-4-44s-10,7-10,15c0,22-27,18-33-4c-4-16-18-20-105-26c-116-8-196,6-224,39c-22,26-20,128,6,276c9,52,16,114,16,138
		c0,55,16,86,38,77C5009.3,10891.5,5051.3,10884.5,5092.3,10878.5z M3747.3,10815.5c44-8,104-15,133-15c48,0,53-2,63-27
		c24-61-19-373-58-429c-10-13-40-36-67-50c-43-23-64-26-191-31c-135-6-146-5-187,16c-23,13-62,41-86,64c-44,43-126,155-156,215
		l-17,33l95,94c56,55,107,97,123,101c15,4,33,11,39,15c16,13,175,38,204,33C3656.3,10832.5,3703.3,10823.5,3747.3,10815.5z
		 M2170.3,10636.5c0-46,3-94,7-106c14-44-17-15-32,30c-14,42-13,126,2,150C2163.3,10736.5,2170.3,10713.5,2170.3,10636.5z
		 M5707.3,10553.5c28-27,83-68,123-92c69-42,72-45,72-82c0-61-54-139-136-198c-76-54-81-59-127-115c-29-34-39-39-107-52
		c-83-14-189-17-292-7l-68,6v37c0,54-27,75-86,66c-26-3-52-10-58-14c-6-5-30-14-53-20c-26-8-71-38-123-82c-44-39-87-70-95-70
		c-14,0-71,81-100,142c-8,18-33,56-55,83c-22,28-40,57-40,65c0,9-7,25-15,37c-10,14-11,24-5,28c5,3,70,9,143,13c126,7,135,9,163,35
		c33,31,44,34,44,12c0-8,11-22,24-31c23-14,37-14,168,0c79,8,175,18,213,21c39,3,85,8,103,11c28,5,31,4,26-11c-6-15-3-16,27-10
		c19,4,48,16,65,26s38,19,46,19c19,0,65,66,78,111c6,19,10,53,10,76c0,24,1,43,3,43C5656.3,10600.5,5680.3,10579.5,5707.3,10553.5z
		 M3197.3,10470.5l45-69l-31-73c-80-189-128-264-165-256c-10,2-38,27-62,57c-33,41-42,59-38,77c5,20,70,139,104,190
		c47,74,95,144,98,144C3150.3,10540.5,3172.3,10509.5,3197.3,10470.5z M4035.3,10320.5c7,0,25-7,40-15c18-9,77-17,166-21l138-7
		l90-86c84-81,186-205,222-271c62-113,112-224,125-276c22-91,40-344,31-447l-7-89l-136,7c-153,8-423,37-552,60
		c-151,27-210,15-265-52l-20-24l-42,58c-60,82-113,138-148,156c-16,9-75,37-129,63c-55,27-120,64-145,84c-57,45-84,60-109,60
		c-21,0-26,12-38,95c-3,28-10,55-14,60c-4,6-11,26-15,45c-11,55-44,118-67,126c-24,7-108-4-124-17c-8-6-26,4-55,31
		c-24,22-51,43-61,46c-25,8-22,50,5,98c32,56,49,64,75,38c14-14,35-22,57-22c30,0,40,7,76,53c23,28,54,80,69,113c27,59,30,62,84,79
		l56,18l34-26c59-45,120-60,216-54c129,9,222,24,255,41c17,9,37,16,45,16c25,0,200-188,223-240c4-8,49-82,100-165
		c100-162,136-199,185-186c37,10,34,33-5,43c-34,9-82,66-125,153c-14,28-38,70-52,95s-31,56-38,70s-15,27-18,30c-11,10-50,69-50,75
		c0,8-68,83-132,146l-48,47l16,32l16,32l30-36C4010.3,10336.5,4029.3,10320.5,4035.3,10320.5z M1836.3,10253.5c5-68,4-79-14-98
		c-11-12-20-25-20-30c0-4-11-23-25-41s-25-40-25-49s-4-13-10-10c-17,10-12,105,5,111c8,4,15,15,15,25s4,19,9,19s12,20,15,45
		c4,25,11,45,17,45c5,0,9,14,9,30C1812.3,10362.5,1829.3,10327.5,1836.3,10253.5z M5072.3,10031.5c5-11,10-53,10-93s3-82,6-93
		c4-12,31-33,67-51c67-33,92-69,68-98c-11-13-32-15-110-12c-112,5-152-9-189-64c-20-29-23-43-18-82c8-57-10-67-19-10
		c-18,123-43,209-92,321c-8,18-11,36-6,40c113,82,238,160,255,160C5054.3,10050.5,5066.3,10041.5,5072.3,10031.5z M2282.3,9903.5
		c2-61,5-573,3-573c-1,0-14,21-29,48c-27,46-27,49-28,229c-1,133,2,185,12,194c6,7,12,27,12,44c0,40,10,75,21,75
		C2278.3,9920.5,2282.3,9912.5,2282.3,9903.5z M2904.3,9853.5c31-21,60-44,63-51c3-8-20-28-58-52c-56-36-63-38-74-23
		c-17,22-18,163-1,163C2840.3,9890.5,2872.3,9873.5,2904.3,9853.5z M3155.3,9777.5c15-23,50-149,62-223c5-36,3-44-23-72
		c-16-17-35-45-42-62c-7-16-17-30-22-30c-10,0-268,258-268,269c0,9,82,63,160,105C3099.3,9806.5,3134.3,9809.5,3155.3,9777.5z
		 M5202.3,9635.5c92-10,127-37,181-140c26-50,51-103,54-120c4-16,12-36,17-42c6-7,8-19,5-27c-5-13-10-13-38,1c-38,19-111,13-160-14
		c-28-15-92-57-194-127c-17-13-75,31-105,80c-22,35-22,39-11,123c15,105,16,114,6,171c-6,37-3,49,13,68c22,25,88,42,142,37
		C5131.3,9643.5,5172.3,9638.5,5202.3,9635.5z M3352.3,9429.5c82-70,165-115,255-138c54-14,89-39,126-88c75-101,89-127,89-168
		c0-67-8-71-83-35c-211,99-419,226-535,326l-33,29l26,47c15,27,34,53,43,58C3266.3,9476.5,3313.3,9463.5,3352.3,9429.5z
		 M5401.3,9266.5c41-22,65-64,65-116c-1-54-32-121-71-148c-94-65-292-144-371-146c-31-1-39,4-52,29c-25,50-37,117-26,152
		c8,27,17,35,60,49c28,10,78,37,111,61c96,69,208,133,233,133C5363.3,9280.5,5386.3,9273.5,5401.3,9266.5z M4167.3,9124.5
		c190-29,331-44,495-52c91-5,174-13,185-20c12-6,26-21,32-34c21-42,52-158,47-172c-7-19-52-25-264-32c-195-7-302,3-506,46
		c-95,20-273,76-288,90c-13,13,44,128,81,160C3989.3,9146.5,4018.3,9147.5,4167.3,9124.5z"/>
	<path class="st1" d="M4845.3,12775.5c-6-17,34-56,81-79c53-26,80,8,29,35c-16,8-30,16-33,19c-8,9-59,40-65,40
		C4854.3,12790.5,4849.3,12783.5,4845.3,12775.5z"/>
	<path class="st1" d="M3991.3,13675.5c-48-7-131-27-185-45c-95-31-235-96-242-112c-2-5-8-8-14-8c-19,0-225-169-319-262
		c-52-51-130-138-173-193c-44-55-97-119-119-142l-41-43l88-84c72-70,105-94,189-135c139-68,356-118,396-92c30,19-6,38-86,44
		c-43,3-109,16-146,28c-73,23-212,87-205,94c2,3,41-8,85-24s136-39,204-52c106-21,154-24,329-24c196,0,208,2,279,27
		c65,23,76,25,86,12c8-12,16-13,35-5c27,12,62,32,70,42c3,3,23,16,45,29c72,44,147,109,139,121c-11,18-37,8-94-36
		c-88-68-81-37,10,45c93,84,104,109,67,148c-57,61-99,172-117,312c-13,99-6,250,11,250c5,0,46-16,90-36c114-53,125-25,18,48
		c-80,55-147,85-209,92c-30,4-66,9-80,11C4088.3,13686.5,4038.3,13682.5,3991.3,13675.5z M4163.3,13594.5l36-6l6-132
		c5-120,21-215,49-291c22-59,51-120,69-147c11-14,19-28,19-31c0-12-201-44-365-57c-66-6-174-15-240-20c-137-12-766-13-749-2
		c6,4,35,36,63,72c135,170,226,260,382,380c162,124,331,205,476,230C3968.3,13599.5,4114.3,13602.5,4163.3,13594.5z M4312.3,12921.5
		c0-12-132-128-185-163c-93-62-197-83-415-82c-261,1-465,45-618,133l-63,36l278,6l278,6l32-27c48-42,96-55,213-55
		c134,0,209,25,269,91c35,38,45,44,83,45c24,1,57,5,73,9C4300.3,12931.5,4312.3,12931.5,4312.3,12921.5z M4218.3,12752.5
		c-17-16-18-16-5,5c7,12,15,20,18,17C4234.3,12772.5,4228.3,12762.5,4218.3,12752.5z M3122.3,12740.5c0-5-2-10-4-10c-3,0-8,5-11,10
		c-3,6-1,10,4,10C3117.3,12750.5,3122.3,12746.5,3122.3,12740.5z"/>
	<path class="st1" d="M4724.3,13478.5c-7-7-12-22-12-35c0-33,37-31,46,1C4768.3,13484.5,4748.3,13502.5,4724.3,13478.5z"/>
	<path class="st1" d="M5250.3,12333.5c-67-28-49-43,50-43c100,0,145-10,196-45c45-31,58-31,54-3s-72,76-121,84c-20,4-40,11-43,15
		C5378.3,12355.5,5291.3,12350.5,5250.3,12333.5z"/>
	<path class="st1" d="M3645.3,12308.5c-13-6-23-14-23-18s64-10,143-14c78-4,157-9,175-12c25-5,32-3,32,10c0,9-11,18-27,22
		c-16,3-38,10-51,15C3863.3,12323.5,3672.3,12321.5,3645.3,12308.5z"/>
	<path class="st1" d="M5142.3,12290.5c-9-18-8-20,15-20c18,0,25,5,25,20c0,11-7,20-15,20S5148.3,12301.5,5142.3,12290.5z"/>
	<path class="st1" d="M4014.3,12243.5c2-10,12-18,23-18s21,8,23,18c3,13-3,17-23,17S4011.3,12256.5,4014.3,12243.5z"/>
	<path class="st1" d="M5167.3,12238.5c-174-58-296-188-345-367c-24-85-25-107-5-114c19-8,23,1,36,67c5,31,16,68,24,83
		c8,16,15,33,15,38c1,18,37,54,66,67c18,7,106,13,232,15c183,4,206,6,238,25c41,24,54,45,54,90c0,48-22,73-79,92
		C5348.3,12252.5,5216.3,12254.5,5167.3,12238.5z"/>
	<path class="st1" d="M3665.3,12209.5c-85-16-183-76-183-112c0-38,33-77,88-103c67-32,154-35,323-10c235,34,358,29,405-15
		c28-26,91-153,99-200c8-45,20-63,34-55c25,16,2,119-48,221c-52,107-242,232-410,269C3895.3,12221.5,3738.3,12224.5,3665.3,12209.5z
		"/>
	<path class="st1" d="M4724.3,12138.5c-14-14-16-64-3-72c10-6,31,37,31,64C4752.3,12153.5,4742.3,12156.5,4724.3,12138.5z"/>
	<path class="st1" d="M3457.3,12000.5c-14-22,62-77,91-66c21,8,17,23-13,44C3497.3,12004.5,3465.3,12013.5,3457.3,12000.5z"/>
	<path class="st1" d="M3807.3,11637.5c-66-71-95-111-95-128c0-19,3-18,39,10c44,35,51,37,51,16c0-23,11-18,63,30c53,50,62,80,22,73
		c-17-4-25-1-25,8C3862.3,11667.5,3830.3,11661.5,3807.3,11637.5z"/>
	<path class="st1" d="M5432.3,11558.5c0-19,52-68,72-68c27,0,22,15-14,49C5456.3,11571.5,5432.3,11579.5,5432.3,11558.5z"/>
	<path class="st1" d="M3708.3,11230.5c-50-28-97-56-105-63c-9-8-52-35-95-62c-234-143-510-441-655-705c-23-41-45-82-51-90
		c-51-81-110-229-164-411c-17-59-22-204-7-213c5-3,12-17,15-32c10-39,54-104,71-104c19,0,20,43,1,59c-8,6-24,39-36,71
		c-19,50-21,71-16,121c4,34,11,69,16,78c4,9,18,48,30,86c32,104,37,116,128,295c102,202,189,333,308,464c186,207,275,278,614,493
		c40,25,66,63,43,63C3801.3,11280.5,3757.3,11257.5,3708.3,11230.5z"/>
	<path class="st1" d="M5464.3,11041.5c-28-17-5-47,78-102c85-56,210-170,263-242c31-41,47-47,47-18c0,38-103,157-252,292
		C5515.3,11047.5,5492.3,11059.5,5464.3,11041.5z"/>
	<path class="st1" d="M4952.3,8500.5c0-36,4-50,14-50c17,0,26,22,26,66c0,27-4,34-20,34C4955.3,8550.5,4952.3,8543.5,4952.3,8500.5z
		"/>
	<path class="st1" d="M4724.3,8457.5c-37-38-53-67-36-67c29,0,104,66,104,92C4792.3,8511.5,4769.3,8503.5,4724.3,8457.5z"/>
	<path class="st0" d="M-109.7,14819.5c-60-70-108-132-108-137c0-9,293-262,303-262c2,0,48,53,102,118c54,64,105,125,114,135
		c14,17,13,20-19,45c-19,15-37,27-41,27c-3,0-37-36-74-80c-69-80-78-85-104-60c-15,15-12,21,66,112l42,49l-36,29l-36,28l-31-34
		c-17-19-45-51-61-71c-29-36-31-36-53-20l-23,18l71,83l71,84l-23,24C5.3,14956.5,4.3,14955.5-109.7,14819.5z"/>
	<path class="st0" d="M7572.3,14731.5c-97-30-190-134-190-213c0-38,46-124,89-167c49-49,104-66,160-51c64,17,69,33,27,85
		c-31,38-40,43-56,35c-29-16-45-12-74,16c-25,26-32,56-20,89c12,30,95,85,129,85c59,0,96-70,59-111c-15-17-14-22,21-69
		c36-50,38-50,57-33c51,46,63,134,29,201c-25,49-87,107-133,127C7630.3,14741.5,7611.3,14742.5,7572.3,14731.5z"/>
	<path class="st0" d="M-443.7,14352.5c-27-17-176-235-177-258c0-5,76-56,169-115l169-107l33,51c17,28,32,54,32,58s-27,24-60,44
		c-54,33-59,39-49,57c10,19,17,20,97,13l87-6l36,59l37,60l-46,6c-24,3-66,6-92,6h-47l-6,42
		C-272.7,14348.5-371.7,14397.5-443.7,14352.5z M-369.7,14212.5c4-25-34-92-51-92c-7,0-22,8-35,18l-23,18l31,43
		C-412.7,14247.5-375.7,14253.5-369.7,14212.5z"/>
	<path class="st0" d="M7882.3,14113.5c-91-53-167-97-169-99c-3-2,152-277,165-293c5-6,84,43,84,52c0,6-20,45-45,88s-45,82-45,86
		s54,39,120,77s123,73,126,77c7,12-48,109-61,109C8052.3,14209.5,7973.3,14166.5,7882.3,14113.5z"/>
	<path class="st0" d="M-762.7,13732.5c-78-37-137-135-139-234c-1-48,4-63,29-99c50-72,157-112,250-95c83,16,161,147,153,258
		c-5,71-38,117-110,152C-652.7,13750.5-712.7,13755.5-762.7,13732.5z M-646.7,13599.5c63-28,85-64,69-115c-7-21-23-40-41-50
		c-27-14-35-14-77,1c-26,8-54,21-63,28c-46,35-47,101-2,137C-727.7,13625.5-708.7,13625.5-646.7,13599.5z"/>
	<path class="st0" d="M8228.3,13589.5c-66-27-128-57-139-66c-56-51-63-144-18-238c41-86,90-125,158-125c23,0,270,94,285,108
		c11,12-38,117-53,114c-8-2-65-23-127-48c-127-51-152-52-178-3c-27,53-7,82,84,120c178,73,174,70,168,94c-12,46-37,95-49,94
		C8353.3,13639.5,8293.3,13616.5,8228.3,13589.5z"/>
	<path class="st0" d="M-1043.7,13071.5c-20-12-37-35-48-63c-23-63-76-261-71-266c10-10,381-110,386-104c11,13,79,267,79,295
		c0,36-25,83-49,97c-32,17-96,12-124-10l-25-20l-6,25c-7,28-59,65-91,65C-1003.7,13090.5-1026.7,13081.5-1043.7,13071.5z
		 M-959.7,12928.5c2-9-2-35-8-58c-11-40-13-42-42-36c-18,3-33,8-34,9c-5,5,19,81,29,95C-1000.7,12956.5-963.7,12949.5-959.7,12928.5
		z M-823.7,12914.5c19-7,20-43,3-95c-12-34-13-35-45-27c-29,8-32,11-26,36c11,46,32,92,43,92
		C-843.7,12920.5-832.7,12917.5-823.7,12914.5z"/>
	<path class="st0" d="M8412.3,12893.5c-96-24-176-46-178-47c-1-2,14-70,34-152c31-123,43-154,66-178c26-26,34-28,79-24
		c56,6,85,27,95,71c5,24,8,27,15,15c5-8,22-21,38-28c38-15,93,1,115,35c23,35,20,74-16,223c-28,117-35,132-53,131
		C8596.3,12939.5,8508.3,12918.5,8412.3,12893.5z M8591.3,12703.5c1-27-35-41-54-22c-7,8-17,33-23,56c-10,43-10,43,22,51
		c29,8,32,7,43-27C8585.3,12741.5,8591.3,12715.5,8591.3,12703.5z M8431.3,12723.5c15-53,13-90-4-97c-34-13-53,15-67,98
		c-3,18,16,30,54,35C8418.3,12760.5,8426.3,12743.5,8431.3,12723.5z"/>
	<path class="st0" d="M-1085.7,11530.5c-97-22-143-155-81-234c91-115,280-42,266,103C-910.7,11492.5-993.7,11550.5-1085.7,11530.5z"
		/>
	<path class="st0" d="M8517.3,11525.5c-104-37-133-166-54-244c55-56,150-54,207,2C8782.3,11396.5,8667.3,11578.5,8517.3,11525.5z"/>
	<path class="st0" d="M8313.3,10573.5c-64-246-69-275-49-318c26-57,120-74,163-30c16,16,25,19,25,10c0-30,44-66,87-72
		c38-5,46-2,76,28c29,30,37,51,66,172c18,77,29,142,25,147c-5,4-85,26-179,49c-93,23-178,44-187,47
		C8327.3,10610.5,8321.3,10602.5,8313.3,10573.5z M8444.3,10443.5c4-2,5-9,3-16s-9-31-15-53c-10-43-28-58-55-48c-17,7-19,44-4,97
		c9,34,12,37,37,31C8425.3,10450.5,8440.3,10445.5,8444.3,10443.5z M8570.3,10414.5c25-7,28-33,11-83c-9-27-16-32-38-29
		c-31,4-36,22-21,77C8533.3,10422.5,8534.3,10423.5,8570.3,10414.5z"/>
	<path class="st0" d="M-915.7,10440.5c-18-11-35-28-38-38c-3-9-8-23-10-31c-4-11-9-10-25,5c-49,44-142,8-155-62c-6-31,58-287,77-308
		c7-7,374,87,387,99c6,5-69,268-84,297c-16,31-61,58-96,58C-872.7,10460.5-897.7,10451.5-915.7,10440.5z M-818.7,10262.5
		c8-29,12-55,9-58s-18-6-34-7c-25-2-29,2-42,46c-17,61-11,79,25,75C-836.7,10315.5-830.7,10308.5-818.7,10262.5z M-971.7,10235.5
		c21-51,18-74-10-81c-35-8-44,0-51,51c-8,50-2,65,26,65C-993.7,10270.5-981.7,10258.5-971.7,10235.5z"/>
	<path class="st0" d="M8176.3,9926.5c-41-18-100-89-118-144c-20-57-20-134-2-170c51-98,201-151,293-103c96,48,156,218,110,308
		C8411.3,9908.5,8265.3,9965.5,8176.3,9926.5z M8302.3,9788.5c53-27,76-63,66-101c-16-66-74-83-153-48c-76,35-91,93-38,147
		C8207.3,9816.5,8245.3,9817.5,8302.3,9788.5z"/>
	<path class="st0" d="M-819.7,9734.5c-71-31-128-61-128-66c0-19,43-108,52-108c6,0,61,23,123,50c62,28,122,50,134,50
		c52,0,83-88,44-122c-10-9-69-38-130-64c-62-27-113-52-113-56s11-32,24-62l25-55l120,54c149,67,165,77,186,122c36,75-8,224-81,280
		C-625.7,9804.5-672.7,9800.5-819.7,9734.5z"/>
	<path class="st0" d="M7834.3,9293.5c-18-31-31-57-30-58c2-1,28-16,58-34c30-19,57-35,58-36c2-2,1-13-3-25c-7-21-11-22-93-15l-87,6
		l-32-56c-18-31-33-61-33-66s40-9,89-9h89l7-39c8-50,41-86,93-102c35-10,45-9,79,8c31,16,52,42,110,139c40,65,72,124,73,130
		c0,9-238,155-341,210C7868.3,9348.5,7851.3,9324.5,7834.3,9293.5z M8043.3,9095.5c29-15,29-16,14-46c-27-51-52-71-75-59
		c-26,14-25,40,1,84C8007.3,9116.5,8004.3,9115.5,8043.3,9095.5z"/>
	<path class="st0" d="M-344.7,9218.5c-18-11-33-24-33-29s23-45,50-89c28-44,50-82,50-84c0-3-56-40-125-82s-125-80-125-83
		s15-29,33-58l32-51l160,99c88,55,166,104,173,108c10,6-8,43-74,149c-48,78-92,142-98,141C-307.7,9239.5-327.7,9229.5-344.7,9218.5z
		"/>
	<path class="st0" d="M7421.3,8673.5c-51-65-100-126-108-136c-15-17-13-21,17-48c18-16,36-29,41-29c4,0,34,33,65,74
		c74,97,76,98,103,76l23-18l-59-73l-59-74l31-27c18-15,35-27,38-28c4,0,32,32,64,71c56,70,70,77,88,48c8-12-6-36-56-100l-66-83
		l32-28c18-15,37-27,42-27c9,0,206,246,212,266c3,9-297,253-310,253C7516.3,8790.5,7472.3,8737.5,7421.3,8673.5z"/>
	<path class="st0" d="M-43.7,8666.5c-18-8-35-19-38-25c-11-17,65-104,78-91c21,21,63,11,90-21c14-17,26-35,26-40
		c0-46-91-129-142-129c-55,0-88,69-56,119c10,16,7,25-22,58c-19,21-41,38-49,38s-26-18-39-40c-46-80-3-198,97-265
		c94-63,230-19,296,95c45,76,30,158-45,238C86.3,8676.5,24.3,8695.5-43.7,8666.5z"/>
	<path class="st0" d="M7015.3,8217.5c-69-71-92-102-100-135c-12-45-4-101,18-130c31-41,86-95,111-108c36-19,116-17,155,4
		c38,20,193,159,193,173c0,11-269,289-280,289C7108.3,8310.5,7065.3,8268.5,7015.3,8217.5z M7166.3,8073.5l70-76l-30-23
		c-45-37-82-32-132,19c-51,52-56,91-16,131c15,14,29,26,33,26C7094.3,8150.5,7128.3,8115.5,7166.3,8073.5z"/>
	<path class="st0" d="M687.3,7803.5c-31-98-60-190-65-204c-7-23-2-30,47-69c31-24,61-43,67-43c9,0,337,203,358,222c5,4-15,24-44,45
		c-49,37-52,38-77,23s-28-14-83,26c-39,29-56,47-52,57c16,40,13,46-34,83c-27,20-52,37-55,37
		C745.3,7980.5,718.3,7900.5,687.3,7803.5z M839.3,7726.5c15-13,26-26,23-28c-40-32-110-78-110-72c0,17,43,124,51,124
		C807.3,7750.5,824.3,7739.5,839.3,7726.5z"/>
	<path class="st0" d="M6274.3,7627.5c-48-29-52-34-46-62c5-28,1-32-49-62c-63-37-70-39-87-18c-18,21-28,19-89-19l-53-33l158-128
		c88-71,164-132,170-137c16-12,134,59,134,81c1,28-74,411-79,411C6329.3,7659.5,6303.3,7645.5,6274.3,7627.5z M6271.3,7402.5
		c6-21,14-54,17-73l7-34l-52,50c-28,27-51,52-51,55c0,6,52,39,62,40C6258.3,7440.5,6266.3,7423.5,6271.3,7402.5z"/>
	<path class="st0" d="M1208.3,7408.5c-53-96-96-177-96-180c0-14,94-58,103-49c6,6,29,45,53,88s44,75,44,72s11-61,25-129
		s25-124,25-126s22-15,49-29c38-19,52-22,58-12c4,6,49,86,100,176l92,165l-49,28c-27,15-52,28-54,28c-3,0-24-36-48-80s-45-80-48-80
		s-17,55-30,121c-24,121-25,122-63,146c-21,13-44,26-52,29C1309.3,7580.5,1272.3,7523.5,1208.3,7408.5z"/>
	<path class="st0" d="M5667.3,7300.5c-22-11-44-21-50-23c-5-2,3-31,17-64l26-61l-65-27c-45-20-71-38-84-59c-53-86,14-216,111-216
		c37,0,260,90,260,105c0,25-150,360-162,362C5713.3,7318.5,5689.3,7310.5,5667.3,7300.5z M5710.3,7035.5c18-40,15-51-19-65
		c-38-16-63-4-67,33c-2,20,3,29,25,41C5688.3,7065.5,5697.3,7064.5,5710.3,7035.5z"/>
	<path class="st0" d="M1879.3,7127.5c-4-83-7-180-7-217v-67l72-27c69-25,73-25,88-9c9,10,63,72,120,138s114,132,127,146l24,26
		l-61,23l-61,23l-23-22l-23-21l-64,24c-61,23-64,26-61,55c2,17,2,31,0,31c-3,0-31,11-65,24l-60,23L1879.3,7127.5z M2055.3,7053.5
		c25-8,22-19-23-75l-40-51v56c0,69,7,90,29,81C2030.3,7061.5,2045.3,7055.5,2055.3,7053.5z"/>
	<path class="st0" d="M4965.3,7052.5c-180-50-170-42-142-118l8-22l106,30c59,16,108,28,110,26c1-2,5-15,9-30c6-25,3-28-36-38
		c-95-25-123-34-131-40c-5-4-3-26,4-49c10-32,16-40,30-36c59,19,162,45,165,42c2-2,5-14,6-27c3-22-4-26-96-52c-54-15-101-30-104-33
		c-3-2,1-24,7-48l13-44l166,46c92,24,169,46,171,47c8,7-104,394-114,393C5132.3,7098.5,5054.3,7077.5,4965.3,7052.5z"/>
	<path class="st0" d="M2507.3,7046.5c-2-6-8-28-14-49c-11-44-19-39,98-66c46-11,86-23,89-26s-9-68-27-146c-18-77-32-142-30-144
		s30-10,62-18c43-12,59-12,62-4c3,7,24,96,48,200c44,185,44,187,23,192c-12,3-85,20-164,39
		C2555.3,7047.5,2509.3,7054.5,2507.3,7046.5z"/>
	<path class="st0" d="M3207.3,6908.5c-51-18-82-46-105-93c-18-38-21-59-19-124c3-66,8-83,31-113c39-51,89-72,185-76
		c75-4,87-2,127,22c104,61,128,246,42,332C3414.3,6910.5,3285.3,6935.5,3207.3,6908.5z M3358.3,6797.5c24-21,27-30,25-82
		c-2-93-47-138-116-115c-44,14-59,46-53,114C3222.3,6811.5,3293.3,6852.5,3358.3,6797.5z"/>
	<path class="st0" d="M3890.3,6890.5c-80-24-121-95-98-166c15-43,55-70,130-84c96-19,101-20,107-36c8-21-14-34-55-34
		c-26,0-35,5-39,20c-4,17-14,20-57,20c-72,0-81-8-62-54c22-53,85-79,175-74c119,6,190,67,175,148c-10,61-49,90-149,110
		c-89,17-95,20-95,40c0,14,10,21,36,26c41,7,84-8,84-31c0-12,13-15,60-15c59,0,60,0,60,29c0,36-34,79-76,97
		C4050.3,6901.5,3934.3,6903.5,3890.3,6890.5z"/>
</g>
</svg>
